<svg width="110" height="75" viewBox="0 0 110 75" fill="none" xmlns="http://www.w3.org/2000/svg">
<rect x="17.2131" width="57.1721" height="22.7459" rx="10" fill="#FDF53F"/>
<rect y="34.4263" width="58.4017" height="30.123" rx="10" fill="#9C236D"/>
<rect x="50.4099" y="16.5984" width="59.0164" height="23.9754" rx="10" fill="#CC85F6"/>
<path d="M32.2823 25.5768C31.1376 27.5825 28.2509 27.597 27.0862 25.6028L26.5209 24.6349C25.3562 22.6407 26.7871 20.1335 29.0965 20.1219L30.2173 20.1163C32.5267 20.1048 33.9826 22.5975 32.8379 24.6033L32.2823 25.5768Z" fill="#FDF53F"/>
<path d="M17.567 69.7231C16.4621 71.9068 13.3503 71.9244 12.2261 69.7533L10.2405 65.9185C9.20982 63.9281 10.649 61.5492 12.8915 61.5365L16.8287 61.5143C19.0712 61.5017 20.5315 63.8642 19.5185 65.8662L17.567 69.7231Z" fill="#9C236D"/>
<path d="M98.8552 44.0879C97.7105 46.0936 94.8238 46.108 93.6591 44.1139L92.7247 42.514C91.56 40.5198 92.9909 38.0126 95.3003 38.0011L97.153 37.9918C99.4623 37.9802 100.918 40.473 99.7735 42.4787L98.8552 44.0879Z" fill="#CC85F6"/>
</svg>
